<svg width="700" height="700" viewBox="0 0 700 700" fill="currentColor" xmlns="http://www.w3.org/2000/svg">
<path d="M584.952 317.19H546.524V214.714C546.524 186.277 523.467 163.476 495.286 163.476H392.81V125.048C392.81 108.061 386.062 91.7704 374.05 79.7591C362.039 67.7479 345.748 61 328.762 61C311.775 61 295.485 67.7479 283.473 79.7591C271.462 91.7704 264.714 108.061 264.714 125.048V163.476H162.238C148.649 163.476 135.616 168.874 126.007 178.483C116.398 188.092 111 201.125 111 214.714V312.067H149.429C187.857 312.067 218.6 342.81 218.6 381.238C218.6 419.667 187.857 450.41 149.429 450.41H111V547.762C111 561.351 116.398 574.384 126.007 583.993C135.616 593.602 148.649 599 162.238 599H259.59V560.571C259.59 522.143 290.333 491.4 328.762 491.4C367.19 491.4 397.933 522.143 397.933 560.571V599H495.286C508.875 599 521.907 593.602 531.516 583.993C541.126 574.384 546.524 561.351 546.524 547.762V445.286H584.952C601.939 445.286 618.23 438.538 630.241 426.527C642.252 414.515 649 398.225 649 381.238C649 364.252 642.252 347.961 630.241 335.95C618.23 323.938 601.939 317.19 584.952 317.19Z"/>
</svg>
