<svg width="700" height="700" viewBox="0 0 700 700" fill="currentColor" xmlns="http://www.w3.org/2000/svg">
<path d="M247.778 354.077V120.556C247.778 106.442 236.336 95 222.222 95V95C208.108 95 196.667 106.442 196.667 120.556V354.077C152.711 365.575 120 405.177 120 452.7C120 500.223 152.711 539.826 196.667 551.323V580.444C196.667 594.558 208.108 606 222.222 606V606C236.336 606 247.778 594.558 247.778 580.444V551.323C291.733 539.826 324.444 500.223 324.444 452.7C324.444 405.177 291.733 365.575 247.778 354.077ZM222.222 401.6C250.333 401.6 273.333 424.595 273.333 452.7C273.333 480.805 250.333 503.8 222.222 503.8C194.111 503.8 171.111 480.805 171.111 452.7C171.111 424.595 194.111 401.6 222.222 401.6ZM503.333 120.556C503.333 106.442 491.892 95 477.778 95V95C463.664 95 452.222 106.442 452.222 120.556V149.677C408.267 161.174 375.556 200.777 375.556 248.3C375.556 295.823 408.267 335.425 452.222 346.923V580.444C452.222 594.558 463.664 606 477.778 606V606C491.892 606 503.333 594.558 503.333 580.444V346.923C547.289 335.425 580 295.823 580 248.3C580 200.777 547.289 161.174 503.333 149.677V120.556ZM477.778 197.2C505.889 197.2 528.889 220.195 528.889 248.3C528.889 276.405 505.889 299.4 477.778 299.4C449.667 299.4 426.667 276.405 426.667 248.3C426.667 220.195 449.667 197.2 477.778 197.2Z"/>
</svg>
