<svg width="700" height="700" viewBox="0 0 700 700" fill="currentColor" xmlns="http://www.w3.org/2000/svg">
<path d="M567 124.563C567 115.06 558.744 107.888 549.411 109.143L244.838 148.589C237.12 149.664 231.198 156.298 231.198 164.188V408.213C220.608 404.627 209.122 402.475 197.276 402.475C139.664 402.475 93 449.272 93 506.827C93 564.382 139.664 611 197.276 611C254.889 611 301.553 564.382 301.553 506.827C301.553 504.676 301.373 502.345 301.373 500.193V250.968C301.373 243.976 306.578 238.238 313.398 237.342L481.21 215.646C489.466 214.571 496.824 221.025 496.824 229.273V346.355C486.056 342.589 474.569 340.617 462.724 340.617C405.111 340.617 358.447 387.235 358.447 444.79C358.447 502.345 405.111 548.963 462.724 548.963C520.336 548.963 567 502.345 567 444.79C567 444.611 567 444.611 567 444.431V124.563Z"/>
</svg>
